<svg xmlns="http://www.w3.org/2000/svg" xmlns:xlink="http://www.w3.org/1999/xlink" width="80" viewBox="0 0 120 120" height="80" preserveAspectRatio="xMidYMid meet" version="1.0"><defs><g/><clipPath id="64deded15d"><path d="M 155 118.441406 L 233.40625 118.441406 L 233.40625 217 L 155 217 Z M 155 118.441406 " clip-rule="nonzero"/></clipPath><clipPath id="19d88ff5f4"><path d="M 141.90625 140 L 195 140 L 195 224.191406 L 141.90625 224.191406 Z M 141.90625 140 " clip-rule="nonzero"/></clipPath></defs><g clip-path="url(#64deded15d)"><path fill="#f7ed4a" d="M 187.59375 118.472656 L 233.410156 145.191406 L 233.410156 197.574219 L 220.21875 205.050781 L 220.21875 160.578125 L 213.960938 163.621094 L 213.960938 208.601562 L 200.765625 216.382812 L 200.765625 164.300781 L 155.101562 137.921875 L 168.628906 129.464844 L 207.191406 152.464844 L 213.285156 148.742188 L 175.058594 126.421875 Z M 187.59375 118.472656 " fill-opacity="1" fill-rule="nonzero"/></g><g clip-path="url(#19d88ff5f4)"><path fill="#ffffff" d="M 148.671875 140.964844 L 141.90625 145.023438 L 141.90625 175.101562 L 181.144531 197.78125 L 181.144531 204.84375 L 141.90625 182.730469 L 141.90625 197.738281 L 187.574219 224.160156 L 194.253906 220.378906 L 194.253906 190.136719 L 155.101562 167.429688 L 155.101562 160.917969 L 194.253906 182.5625 L 194.253906 167.429688 Z M 148.671875 140.964844 " fill-opacity="1" fill-rule="nonzero"/></g><g fill="#ffffff" fill-opacity="1"><g transform="translate(132.864255, 252.260681)"><g><path d="M 9.921875 0.3125 C 8.535156 0.3125 7.1875 0.15625 5.875 -0.15625 C 4.5625 -0.46875 3.421875 -0.929688 2.453125 -1.546875 C 1.972656 -1.859375 1.679688 -2.238281 1.578125 -2.6875 C 1.472656 -3.144531 1.507812 -3.578125 1.6875 -3.984375 C 1.863281 -4.390625 2.140625 -4.664062 2.515625 -4.8125 C 2.898438 -4.96875 3.34375 -4.894531 3.84375 -4.59375 C 4.75 -4.050781 5.707031 -3.65625 6.71875 -3.40625 C 7.738281 -3.15625 8.804688 -3.03125 9.921875 -3.03125 C 11.554688 -3.03125 12.742188 -3.304688 13.484375 -3.859375 C 14.222656 -4.410156 14.59375 -5.117188 14.59375 -5.984375 C 14.59375 -6.703125 14.328125 -7.269531 13.796875 -7.6875 C 13.273438 -8.101562 12.375 -8.445312 11.09375 -8.71875 L 7.6875 -9.421875 C 3.800781 -10.242188 1.859375 -12.238281 1.859375 -15.40625 C 1.859375 -16.769531 2.21875 -17.957031 2.9375 -18.96875 C 3.664062 -19.976562 4.671875 -20.765625 5.953125 -21.328125 C 7.234375 -21.890625 8.710938 -22.171875 10.390625 -22.171875 C 11.628906 -22.171875 12.804688 -22.015625 13.921875 -21.703125 C 15.035156 -21.390625 16.035156 -20.929688 16.921875 -20.328125 C 17.335938 -20.046875 17.585938 -19.691406 17.671875 -19.265625 C 17.753906 -18.835938 17.703125 -18.441406 17.515625 -18.078125 C 17.328125 -17.722656 17.03125 -17.476562 16.625 -17.34375 C 16.226562 -17.207031 15.757812 -17.296875 15.21875 -17.609375 C 14.457031 -18.046875 13.679688 -18.351562 12.890625 -18.53125 C 12.109375 -18.71875 11.265625 -18.8125 10.359375 -18.8125 C 8.929688 -18.8125 7.8125 -18.507812 7 -17.90625 C 6.195312 -17.3125 5.796875 -16.53125 5.796875 -15.5625 C 5.796875 -14.820312 6.039062 -14.226562 6.53125 -13.78125 C 7.03125 -13.332031 7.878906 -12.984375 9.078125 -12.734375 L 12.46875 -12.03125 C 14.507812 -11.59375 16.03125 -10.910156 17.03125 -9.984375 C 18.03125 -9.054688 18.53125 -7.816406 18.53125 -6.265625 C 18.53125 -4.960938 18.179688 -3.8125 17.484375 -2.8125 C 16.785156 -1.820312 15.789062 -1.050781 14.5 -0.5 C 13.207031 0.0390625 11.679688 0.3125 9.921875 0.3125 Z M 9.921875 0.3125 "/></g></g></g><g fill="#ffffff" fill-opacity="1"><g transform="translate(152.422824, 252.260681)"><g><path d="M 2.609375 0.25 C 1.878906 0.25 1.359375 0.00390625 1.046875 -0.484375 C 0.742188 -0.984375 0.753906 -1.585938 1.078125 -2.296875 L 9.265625 -20.421875 C 9.535156 -21.023438 9.859375 -21.457031 10.234375 -21.71875 C 10.617188 -21.976562 11.0625 -22.109375 11.5625 -22.109375 C 12.039062 -22.109375 12.46875 -21.976562 12.84375 -21.71875 C 13.226562 -21.457031 13.554688 -21.023438 13.828125 -20.421875 L 22.046875 -2.296875 C 22.367188 -1.566406 22.382812 -0.957031 22.09375 -0.46875 C 21.8125 0.0078125 21.316406 0.25 20.609375 0.25 C 20.035156 0.25 19.585938 0.109375 19.265625 -0.171875 C 18.941406 -0.453125 18.65625 -0.878906 18.40625 -1.453125 L 16.859375 -5.046875 L 6.203125 -5.046875 L 4.6875 -1.453125 C 4.414062 -0.859375 4.132812 -0.425781 3.84375 -0.15625 C 3.550781 0.113281 3.140625 0.25 2.609375 0.25 Z M 11.5 -17.546875 L 7.5625 -8.21875 L 15.5 -8.21875 L 11.5625 -17.546875 Z M 11.5 -17.546875 "/></g></g></g><g fill="#ffffff" fill-opacity="1"><g transform="translate(175.483949, 252.260681)"><g><path d="M 20.546875 3.5 C 20.898438 4.0625 21 4.5625 20.84375 5 C 20.6875 5.445312 20.382812 5.78125 19.9375 6 C 19.5 6.21875 19.023438 6.273438 18.515625 6.171875 C 18.015625 6.066406 17.585938 5.734375 17.234375 5.171875 L 15.09375 1.734375 C 14.519531 0.785156 13.539062 0.3125 12.15625 0.3125 C 10.039062 0.3125 8.195312 -0.148438 6.625 -1.078125 C 5.0625 -2.015625 3.84375 -3.320312 2.96875 -5 C 2.101562 -6.6875 1.671875 -8.664062 1.671875 -10.9375 C 1.671875 -13.238281 2.101562 -15.222656 2.96875 -16.890625 C 3.84375 -18.566406 5.0625 -19.863281 6.625 -20.78125 C 8.195312 -21.707031 10.050781 -22.171875 12.1875 -22.171875 C 14.3125 -22.171875 16.160156 -21.707031 17.734375 -20.78125 C 19.304688 -19.863281 20.523438 -18.566406 21.390625 -16.890625 C 22.253906 -15.222656 22.6875 -13.25 22.6875 -10.96875 C 22.6875 -8.488281 22.175781 -6.359375 21.15625 -4.578125 C 20.132812 -2.804688 18.722656 -1.507812 16.921875 -0.6875 C 17.378906 -0.519531 17.785156 -0.269531 18.140625 0.0625 C 18.503906 0.394531 18.863281 0.835938 19.21875 1.390625 Z M 12.1875 -3.09375 C 14.1875 -3.09375 15.742188 -3.785156 16.859375 -5.171875 C 17.972656 -6.554688 18.53125 -8.476562 18.53125 -10.9375 C 18.53125 -13.414062 17.976562 -15.335938 16.875 -16.703125 C 15.769531 -18.066406 14.207031 -18.75 12.1875 -18.75 C 10.175781 -18.75 8.613281 -18.066406 7.5 -16.703125 C 6.382812 -15.335938 5.828125 -13.414062 5.828125 -10.9375 C 5.828125 -8.476562 6.382812 -6.554688 7.5 -5.171875 C 8.613281 -3.785156 10.175781 -3.09375 12.1875 -3.09375 Z M 12.1875 -3.09375 "/></g></g></g><g fill="#ffffff" fill-opacity="1"><g transform="translate(199.815918, 252.260681)"><g><path d="M 9.640625 0.25 C 8.316406 0.25 7.65625 -0.429688 7.65625 -1.796875 L 7.65625 -18.53125 L 1.609375 -18.53125 C 0.472656 -18.53125 -0.09375 -19.09375 -0.09375 -20.21875 C -0.09375 -21.3125 0.472656 -21.859375 1.609375 -21.859375 L 17.671875 -21.859375 C 18.804688 -21.859375 19.375 -21.3125 19.375 -20.21875 C 19.375 -19.09375 18.804688 -18.53125 17.671875 -18.53125 L 11.625 -18.53125 L 11.625 -1.796875 C 11.625 -0.429688 10.960938 0.25 9.640625 0.25 Z M 9.640625 0.25 "/></g></g></g><g fill="#ffffff" fill-opacity="1"><g transform="translate(219.064524, 252.260681)"><g><path d="M 2.609375 0.25 C 1.878906 0.25 1.359375 0.00390625 1.046875 -0.484375 C 0.742188 -0.984375 0.753906 -1.585938 1.078125 -2.296875 L 9.265625 -20.421875 C 9.535156 -21.023438 9.859375 -21.457031 10.234375 -21.71875 C 10.617188 -21.976562 11.0625 -22.109375 11.5625 -22.109375 C 12.039062 -22.109375 12.46875 -21.976562 12.84375 -21.71875 C 13.226562 -21.457031 13.554688 -21.023438 13.828125 -20.421875 L 22.046875 -2.296875 C 22.367188 -1.566406 22.382812 -0.957031 22.09375 -0.46875 C 21.8125 0.0078125 21.316406 0.25 20.609375 0.25 C 20.035156 0.25 19.585938 0.109375 19.265625 -0.171875 C 18.941406 -0.453125 18.65625 -0.878906 18.40625 -1.453125 L 16.859375 -5.046875 L 6.203125 -5.046875 L 4.6875 -1.453125 C 4.414062 -0.859375 4.132812 -0.425781 3.84375 -0.15625 C 3.550781 0.113281 3.140625 0.25 2.609375 0.25 Z M 11.5 -17.546875 L 7.5625 -8.21875 L 15.5 -8.21875 L 11.5625 -17.546875 Z M 11.5 -17.546875 "/></g></g></g></svg>